<svg width="163" height="56" viewBox="0 0 163 56" fill="none" xmlns="http://www.w3.org/2000/svg">
<path d="M163 56H0V0H163V56ZM91.208 9.59961C87.4533 9.59961 84.6054 10.5605 82.6641 12.4805C80.7441 14.4005 79.7842 17.2376 79.7842 20.9922C79.7842 24.7468 80.7441 27.5839 82.6641 29.5039C84.6054 31.4238 87.4534 32.3838 91.208 32.3838C94.5784 32.3837 97.181 31.5842 99.0156 29.9844C100.872 28.3844 101.8 26.0801 101.8 23.0723H95.2715C95.2714 24.3521 94.9197 25.3439 94.2158 26.0479C93.5118 26.7519 92.4767 27.1035 91.1113 27.1035C89.7249 27.1034 88.6904 26.6557 88.0078 25.7598C87.3465 24.8424 87.0156 23.5942 87.0156 22.0156V19.9678C87.0157 18.3679 87.3465 17.1196 88.0078 16.2236C88.6905 15.3278 89.7466 14.8799 91.1758 14.8799C92.413 14.8799 93.3621 15.2534 94.0234 16C94.7061 16.7467 95.0479 17.76 95.0479 19.04H101.8C101.8 16.0109 100.851 13.6858 98.9521 12.0645C97.0535 10.4218 94.4719 9.59965 91.208 9.59961ZM116.562 9.59961C112.764 9.59969 109.831 10.5705 107.762 12.5117C105.714 14.4317 104.69 17.2589 104.69 20.9922C104.69 24.7253 105.714 27.5626 107.762 29.5039C109.831 31.4238 112.764 32.3837 116.562 32.3838C120.359 32.3838 123.293 31.413 125.362 29.4717C127.431 27.5304 128.466 24.7039 128.466 20.9922C128.466 17.2802 127.432 14.4531 125.362 12.5117C123.293 10.5704 120.359 9.59961 116.562 9.59961ZM8.36816 9.98438V32H23.2158C24.3892 32 25.4669 31.7543 26.4482 31.2637C27.4294 30.773 28.1973 30.0904 28.752 29.2158C29.3279 28.3198 29.6162 27.2955 29.6162 26.1436C29.6161 23.1145 28.2184 21.2796 25.4238 20.6396V20.5117C27.8772 19.8077 29.1035 18.1009 29.1035 15.3916C29.1034 14.368 28.8268 13.4402 28.2725 12.6084C27.7392 11.7766 27.0029 11.1365 26.0645 10.6885C25.1472 10.2192 24.1336 9.98443 23.0244 9.98438H8.36816ZM33.2744 32H52.5381V26.7197H40.3467V23.3604H50.5859V18.3037H40.3467V15.2637H52.3145V9.98438H33.2744V32ZM54.3203 32H61.5518L62.4805 28.8965H70.1924L71.1201 32H78.6084L70.5762 9.98438H62.3516L54.3203 32ZM132.274 32H138.771V21.3115L148.019 32H154.194V9.98438H147.698V20.832L138.45 9.98438H132.274V32ZM116.562 14.8799C118.076 14.8799 119.228 15.3387 120.018 16.2559C120.828 17.1731 121.234 18.4105 121.234 19.9678V22.0156C121.234 23.5729 120.828 24.8102 120.018 25.7275C119.228 26.6449 118.076 27.1035 116.562 27.1035C115.047 27.1034 113.896 26.6448 113.106 25.7275C112.317 24.8102 111.922 23.5729 111.922 22.0156V19.9678C111.922 18.4105 112.317 17.1731 113.106 16.2559C113.896 15.3388 115.047 14.88 116.562 14.8799ZM20.8164 23.1035C21.2856 23.1036 21.6692 23.275 21.9678 23.6162C22.2878 23.9362 22.4482 24.3414 22.4482 24.832V25.1523C22.4482 25.6429 22.2877 26.0591 21.9678 26.4004C21.6692 26.7201 21.2854 26.8798 20.8164 26.8799H15.4404V23.1035H20.8164ZM68.7197 23.9678H63.9521L66.2881 16.1279H66.416L68.7197 23.9678ZM20.3037 14.8164C20.7517 14.8164 21.1361 14.9868 21.4561 15.3281C21.7759 15.648 21.9355 16.0426 21.9355 16.5117V16.832C21.9355 17.3227 21.776 17.7388 21.4561 18.0801C21.1574 18.4001 20.773 18.5596 20.3037 18.5596H15.4404V14.8164H20.3037Z" fill="black"/>
<path d="M15.52 39.808V48H11.984V39.808H8.368V36.992H19.12V39.808H15.52ZM28.1549 48V43.824H24.2669V48H20.7309V36.992H24.2669V41.008H28.1549V36.992H31.6909V48H28.1549ZM34.059 36.992H43.579V39.632H37.595V41.152H42.715V43.68H37.595V45.36H43.691V48H34.059V36.992Z" fill="white"/>
<path d="M91.808 36.8C93.216 36.8 94.3733 37.088 95.28 37.664C96.1867 38.2293 96.6507 39.072 96.672 40.192V40.384H93.36V40.32C93.36 40 93.2427 39.7333 93.008 39.52C92.7733 39.3067 92.416 39.2 91.936 39.2C91.4667 39.2 91.104 39.2693 90.848 39.408C90.6027 39.5467 90.48 39.7173 90.48 39.92C90.48 40.208 90.6507 40.4213 90.992 40.56C91.3333 40.6987 91.8827 40.8427 92.64 40.992C93.5253 41.1733 94.2507 41.3653 94.816 41.568C95.392 41.76 95.8933 42.08 96.32 42.528C96.7467 42.976 96.9653 43.584 96.976 44.352C96.976 45.6533 96.5333 46.6187 95.648 47.248C94.7733 47.8773 93.6 48.192 92.128 48.192C90.4107 48.192 89.072 47.904 88.112 47.328C87.1627 46.752 86.688 45.7333 86.688 44.272H90.032C90.032 44.8267 90.176 45.2 90.464 45.392C90.752 45.5733 91.2 45.664 91.808 45.664C92.256 45.664 92.624 45.616 92.912 45.52C93.2107 45.424 93.36 45.2267 93.36 44.928C93.36 44.6613 93.1947 44.464 92.864 44.336C92.544 44.1973 92.016 44.0533 91.28 43.904C90.384 43.712 89.6427 43.5147 89.056 43.312C88.4693 43.0987 87.9573 42.752 87.52 42.272C87.0827 41.792 86.864 41.1413 86.864 40.32C86.864 39.1147 87.328 38.2293 88.256 37.664C89.1947 37.088 90.3787 36.8 91.808 36.8ZM105.067 39.808V48H101.531V39.808H97.9149V36.992H108.667V39.808H105.067ZM121.238 43.568C121.238 45.072 120.763 46.2187 119.814 47.008C118.864 47.7973 117.515 48.192 115.766 48.192C114.016 48.192 112.662 47.7973 111.702 47.008C110.752 46.2187 110.278 45.072 110.278 43.568V36.992H113.814V43.52C113.814 44.1387 113.979 44.6347 114.31 45.008C114.64 45.3707 115.12 45.552 115.75 45.552C116.379 45.552 116.859 45.3653 117.19 44.992C117.531 44.6187 117.702 44.128 117.702 43.52V36.992H121.238V43.568ZM128.374 36.992C132.225 36.992 134.15 38.8267 134.15 42.496C134.15 46.1653 132.225 48 128.374 48H123.606V36.992H128.374ZM127.142 45.36H128.31C129.793 45.36 130.534 44.5653 130.534 42.976V42.016C130.534 40.4267 129.793 39.632 128.31 39.632H127.142V45.36ZM136.219 48V36.992H139.755V48H136.219ZM147.75 36.8C149.648 36.8 151.115 37.2853 152.15 38.256C153.184 39.2267 153.702 40.64 153.702 42.496C153.702 44.352 153.184 45.7653 152.15 46.736C151.115 47.7067 149.648 48.192 147.75 48.192C145.851 48.192 144.384 47.712 143.35 46.752C142.326 45.7813 141.814 44.3627 141.814 42.496C141.814 40.6293 142.326 39.216 143.35 38.256C144.384 37.2853 145.851 36.8 147.75 36.8ZM147.75 39.44C146.992 39.44 146.416 39.6693 146.022 40.128C145.627 40.5867 145.43 41.2053 145.43 41.984V43.008C145.43 43.7867 145.627 44.4053 146.022 44.864C146.416 45.3227 146.992 45.552 147.75 45.552C148.507 45.552 149.083 45.3227 149.478 44.864C149.883 44.4053 150.086 43.7867 150.086 43.008V41.984C150.086 41.2053 149.883 40.5867 149.478 40.128C149.083 39.6693 148.507 39.44 147.75 39.44Z" fill="white"/>
</svg>
